# xmcd
#
# Track frame offsets:
#	150
#	19885
#	35168
#	74922
#	105611
#
# Disc length: 1642 seconds
#
# Revision: 0
# Processed by: cddbd v1.5.2PL0 Copyright (c) Steve Scherf et al.
# Submitted via: EasyCDDAExtractor 7.1.3.1
#
DISCID=48066805
DTITLE=Big and Rich - Big And Rich's Super Galactic Fan Pak CD Disc 1
DYEAR=2004
DGENRE=Country
TTITLE0=Save a Horse (Ride a Cowboy) [Dance Mix]
TTITLE1=Never Been Down
TTITLE2=Drinkin' Bout You [Acoustic Version]
TTITLE3=The Bob Song
TTITLE4=Save a Horse (Ride A Cowboy) [Live]
EXTD=
EXTT0=
EXTT1=
EXTT2=
EXTT3=
EXTT4=
PLAYORDER=
